<svg width="140" height="41" viewBox="0 0 140 41" fill="none" xmlns="http://www.w3.org/2000/svg">
<path d="M51.462 26.1415C49.734 26.1415 48.384 25.7215 47.412 24.8815C46.44 24.0295 45.924 22.8235 45.864 21.2635C45.852 20.9155 45.846 20.3635 45.846 19.6075C45.846 18.8515 45.852 18.2995 45.864 17.9515C45.924 16.4275 46.446 15.2515 47.43 14.4235C48.426 13.5955 49.77 13.1815 51.462 13.1815C52.602 13.1815 53.592 13.3675 54.432 13.7395C55.284 14.1115 55.932 14.5855 56.376 15.1615C56.832 15.7375 57.072 16.3315 57.096 16.9435C57.096 17.0515 57.054 17.1415 56.97 17.2135C56.898 17.2855 56.808 17.3215 56.7 17.3215H54.072C53.952 17.3215 53.856 17.3035 53.784 17.2675C53.712 17.2315 53.652 17.1655 53.604 17.0695C53.448 16.7215 53.202 16.4215 52.866 16.1695C52.53 15.9055 52.062 15.7735 51.462 15.7735C50.034 15.7735 49.284 16.5295 49.212 18.0415C49.2 18.3775 49.194 18.8995 49.194 19.6075C49.194 20.3035 49.2 20.8255 49.212 21.1735C49.284 22.7575 50.052 23.5495 51.516 23.5495C52.224 23.5495 52.788 23.3695 53.208 23.0095C53.64 22.6375 53.856 22.0735 53.856 21.3175V20.9755H52.164C52.032 20.9755 51.924 20.9335 51.84 20.8495C51.756 20.7535 51.714 20.6395 51.714 20.5075V19.1755C51.714 19.0435 51.756 18.9355 51.84 18.8515C51.924 18.7555 52.032 18.7075 52.164 18.7075H56.7C56.832 18.7075 56.94 18.7555 57.024 18.8515C57.108 18.9355 57.15 19.0435 57.15 19.1755V21.2275C57.15 22.2475 56.916 23.1295 56.448 23.8735C55.98 24.6055 55.314 25.1695 54.45 25.5655C53.598 25.9495 52.602 26.1415 51.462 26.1415ZM63.4451 26.1415C61.9571 26.1415 60.8111 25.7875 60.0071 25.0795C59.2031 24.3715 58.7651 23.3755 58.6931 22.0915C58.6811 21.9355 58.6751 21.6655 58.6751 21.2815C58.6751 20.8975 58.6811 20.6275 58.6931 20.4715C58.7651 19.1995 59.2151 18.2095 60.0431 17.5015C60.8711 16.7815 62.0051 16.4215 63.4451 16.4215C64.8971 16.4215 66.0371 16.7815 66.8651 17.5015C67.6931 18.2095 68.1431 19.1995 68.2151 20.4715C68.2271 20.6275 68.2331 20.8975 68.2331 21.2815C68.2331 21.6655 68.2271 21.9355 68.2151 22.0915C68.1431 23.3755 67.7051 24.3715 66.9011 25.0795C66.0971 25.7875 64.9451 26.1415 63.4451 26.1415ZM63.4451 23.9455C63.9731 23.9455 64.3631 23.7895 64.6151 23.4775C64.8671 23.1535 65.0111 22.6615 65.0471 22.0015C65.0591 21.8815 65.0651 21.6415 65.0651 21.2815C65.0651 20.9215 65.0591 20.6815 65.0471 20.5615C65.0111 19.9135 64.8611 19.4275 64.5971 19.1035C64.3451 18.7795 63.9611 18.6175 63.4451 18.6175C62.4491 18.6175 61.9211 19.2655 61.8611 20.5615L61.8431 21.2815L61.8611 22.0015C61.8851 22.6615 62.0231 23.1535 62.2751 23.4775C62.5391 23.7895 62.9291 23.9455 63.4451 23.9455Z" fill="black"/>
<path d="M75.385 26.1415C73.669 26.1415 72.325 25.7275 71.353 24.8995C70.393 24.0595 69.883 22.8475 69.823 21.2635C69.811 20.9395 69.805 20.4115 69.805 19.6795C69.805 18.9355 69.811 18.3955 69.823 18.0595C69.883 16.4995 70.405 15.2995 71.389 14.4595C72.373 13.6075 73.705 13.1815 75.385 13.1815C76.441 13.1815 77.389 13.3615 78.229 13.7215C79.069 14.0695 79.729 14.5735 80.209 15.2335C80.701 15.8815 80.953 16.6435 80.965 17.5195V17.5555C80.965 17.6515 80.923 17.7355 80.839 17.8075C80.767 17.8675 80.683 17.8975 80.587 17.8975H78.157C78.001 17.8975 77.881 17.8675 77.797 17.8075C77.713 17.7355 77.641 17.6095 77.581 17.4295C77.413 16.8175 77.149 16.3915 76.789 16.1515C76.429 15.8995 75.955 15.7735 75.367 15.7735C73.951 15.7735 73.219 16.5655 73.171 18.1495C73.159 18.4735 73.153 18.9715 73.153 19.6435C73.153 20.3155 73.159 20.8255 73.171 21.1735C73.219 22.7575 73.951 23.5495 75.367 23.5495C75.955 23.5495 76.435 23.4235 76.807 23.1715C77.179 22.9075 77.437 22.4815 77.581 21.8935C77.629 21.7135 77.695 21.5935 77.779 21.5335C77.863 21.4615 77.989 21.4255 78.157 21.4255H80.587C80.695 21.4255 80.785 21.4615 80.857 21.5335C80.941 21.6055 80.977 21.6955 80.965 21.8035C80.953 22.6795 80.701 23.4475 80.209 24.1075C79.729 24.7555 79.069 25.2595 78.229 25.6195C77.389 25.9675 76.441 26.1415 75.385 26.1415ZM87.0877 26.1415C85.5997 26.1415 84.4537 25.7875 83.6497 25.0795C82.8457 24.3715 82.4077 23.3755 82.3357 22.0915C82.3237 21.9355 82.3177 21.6655 82.3177 21.2815C82.3177 20.8975 82.3237 20.6275 82.3357 20.4715C82.4077 19.1995 82.8577 18.2095 83.6857 17.5015C84.5137 16.7815 85.6477 16.4215 87.0877 16.4215C88.5397 16.4215 89.6797 16.7815 90.5077 17.5015C91.3357 18.2095 91.7857 19.1995 91.8577 20.4715C91.8697 20.6275 91.8757 20.8975 91.8757 21.2815C91.8757 21.6655 91.8697 21.9355 91.8577 22.0915C91.7857 23.3755 91.3477 24.3715 90.5437 25.0795C89.7397 25.7875 88.5877 26.1415 87.0877 26.1415ZM87.0877 23.9455C87.6157 23.9455 88.0057 23.7895 88.2577 23.4775C88.5097 23.1535 88.6537 22.6615 88.6897 22.0015C88.7017 21.8815 88.7077 21.6415 88.7077 21.2815C88.7077 20.9215 88.7017 20.6815 88.6897 20.5615C88.6537 19.9135 88.5037 19.4275 88.2397 19.1035C87.9877 18.7795 87.6037 18.6175 87.0877 18.6175C86.0917 18.6175 85.5637 19.2655 85.5037 20.5615L85.4857 21.2815L85.5037 22.0015C85.5277 22.6615 85.6657 23.1535 85.9177 23.4775C86.1817 23.7895 86.5717 23.9455 87.0877 23.9455ZM94.1136 25.9615C93.9816 25.9615 93.8736 25.9195 93.7896 25.8355C93.7056 25.7515 93.6636 25.6435 93.6636 25.5115V17.0515C93.6636 16.9195 93.7056 16.8115 93.7896 16.7275C93.8736 16.6435 93.9816 16.6015 94.1136 16.6015H96.1836C96.3156 16.6015 96.4236 16.6495 96.5076 16.7455C96.6036 16.8295 96.6516 16.9315 96.6516 17.0515V17.7715C97.3116 16.9915 98.1996 16.6015 99.3156 16.6015H100.108C100.24 16.6015 100.348 16.6435 100.432 16.7275C100.516 16.8115 100.558 16.9195 100.558 17.0515V18.9055C100.558 19.0255 100.516 19.1335 100.432 19.2295C100.348 19.3135 100.24 19.3555 100.108 19.3555H98.3616C97.8696 19.3555 97.4856 19.4935 97.2096 19.7695C96.9456 20.0335 96.8136 20.4115 96.8136 20.9035V25.5115C96.8136 25.6435 96.7656 25.7515 96.6696 25.8355C96.5856 25.9195 96.4776 25.9615 96.3456 25.9615H94.1136ZM106.178 26.1415C104.69 26.1415 103.544 25.7875 102.74 25.0795C101.936 24.3715 101.498 23.3755 101.426 22.0915C101.414 21.9355 101.408 21.6655 101.408 21.2815C101.408 20.8975 101.414 20.6275 101.426 20.4715C101.498 19.1995 101.948 18.2095 102.776 17.5015C103.604 16.7815 104.738 16.4215 106.178 16.4215C107.63 16.4215 108.77 16.7815 109.598 17.5015C110.426 18.2095 110.876 19.1995 110.948 20.4715C110.96 20.6275 110.966 20.8975 110.966 21.2815C110.966 21.6655 110.96 21.9355 110.948 22.0915C110.876 23.3755 110.438 24.3715 109.634 25.0795C108.83 25.7875 107.678 26.1415 106.178 26.1415ZM106.178 23.9455C106.706 23.9455 107.096 23.7895 107.348 23.4775C107.6 23.1535 107.744 22.6615 107.78 22.0015C107.792 21.8815 107.798 21.6415 107.798 21.2815C107.798 20.9215 107.792 20.6815 107.78 20.5615C107.744 19.9135 107.594 19.4275 107.33 19.1035C107.078 18.7795 106.694 18.6175 106.178 18.6175C105.182 18.6175 104.654 19.2655 104.594 20.5615L104.576 21.2815L104.594 22.0015C104.618 22.6615 104.756 23.1535 105.008 23.4775C105.272 23.7895 105.662 23.9455 106.178 23.9455ZM113.203 25.9615C113.071 25.9615 112.963 25.9195 112.879 25.8355C112.795 25.7515 112.753 25.6435 112.753 25.5115V17.0515C112.753 16.9195 112.795 16.8115 112.879 16.7275C112.963 16.6435 113.071 16.6015 113.203 16.6015H115.273C115.405 16.6015 115.513 16.6435 115.597 16.7275C115.693 16.8115 115.741 16.9195 115.741 17.0515V17.7355C116.065 17.3395 116.479 17.0215 116.983 16.7815C117.499 16.5415 118.081 16.4215 118.729 16.4215C119.785 16.4215 120.643 16.7815 121.303 17.5015C121.963 18.2095 122.293 19.2055 122.293 20.4895V25.5115C122.293 25.6315 122.251 25.7395 122.167 25.8355C122.083 25.9195 121.975 25.9615 121.843 25.9615H119.575C119.455 25.9615 119.347 25.9195 119.251 25.8355C119.167 25.7395 119.125 25.6315 119.125 25.5115V20.5975C119.125 20.0335 118.987 19.6015 118.711 19.3015C118.435 18.9895 118.039 18.8335 117.523 18.8335C117.019 18.8335 116.623 18.9895 116.335 19.3015C116.047 19.6015 115.903 20.0335 115.903 20.5975V25.5115C115.903 25.6315 115.861 25.7395 115.777 25.8355C115.693 25.9195 115.585 25.9615 115.453 25.9615H113.203ZM127.128 26.1415C126.492 26.1415 125.91 26.0215 125.382 25.7815C124.866 25.5295 124.458 25.1935 124.158 24.7735C123.87 24.3415 123.726 23.8675 123.726 23.3515C123.726 22.5235 124.062 21.8575 124.734 21.3535C125.418 20.8495 126.354 20.5015 127.542 20.3095L129.792 19.9675V19.7155C129.792 19.2595 129.696 18.9235 129.504 18.7075C129.312 18.4915 128.988 18.3835 128.532 18.3835C128.256 18.3835 128.028 18.4315 127.848 18.5275C127.668 18.6235 127.482 18.7555 127.29 18.9235C127.122 19.0675 126.996 19.1635 126.912 19.2115C126.876 19.3075 126.81 19.3555 126.714 19.3555H124.752C124.632 19.3555 124.53 19.3195 124.446 19.2475C124.374 19.1635 124.344 19.0675 124.356 18.9595C124.368 18.6355 124.524 18.2755 124.824 17.8795C125.136 17.4835 125.604 17.1415 126.228 16.8535C126.864 16.5655 127.644 16.4215 128.568 16.4215C130.044 16.4215 131.136 16.7515 131.844 17.4115C132.552 18.0595 132.906 18.9355 132.906 20.0395V25.5115C132.906 25.6315 132.864 25.7395 132.78 25.8355C132.696 25.9195 132.588 25.9615 132.456 25.9615H130.368C130.248 25.9615 130.14 25.9195 130.044 25.8355C129.96 25.7395 129.918 25.6315 129.918 25.5115V24.8815C129.654 25.2535 129.282 25.5595 128.802 25.7995C128.334 26.0275 127.776 26.1415 127.128 26.1415ZM127.974 24.0895C128.526 24.0895 128.97 23.9095 129.306 23.5495C129.654 23.1895 129.828 22.6615 129.828 21.9655V21.7135L128.298 21.9835C127.218 22.1755 126.678 22.5535 126.678 23.1175C126.678 23.4175 126.804 23.6575 127.056 23.8375C127.308 24.0055 127.614 24.0895 127.974 24.0895Z" fill="#EC5863"/>
<path d="M14.8498 5.11341C16.3375 4.60141 17.9726 5.29193 18.5011 6.65505C18.9056 7.69869 18.5436 8.83314 17.6854 9.53793L18.1491 10.7792L18.8869 11.6149C19.0553 11.8061 19.3108 11.8975 19.5668 11.8667C20.2571 11.7833 20.9431 11.7801 21.6149 11.8495C21.8425 11.8732 22.069 11.7994 22.2324 11.6435L22.7648 11.1378L23.1573 10.0161C22.8233 9.56626 22.7103 8.97044 22.9083 8.40432C23.2443 7.44464 24.3418 6.94864 25.3178 7.34163C26.1586 7.67976 26.6161 8.59779 26.3699 9.45207C26.2135 9.99621 25.8177 10.4038 25.3306 10.6055L24.896 11.8484L24.9951 12.5333C25.0291 12.7687 25.1716 12.9744 25.3797 13.0976C26.0792 13.5144 26.7218 14.0237 27.2858 14.6126C27.4754 14.8109 27.7582 14.8958 28.03 14.8421L29.429 14.5664L31.0095 13.706C31.0177 12.9431 31.4332 12.2056 32.1643 11.8075C33.2698 11.2059 34.6699 11.6102 35.259 12.7124C35.7908 13.7068 35.457 14.9568 34.4937 15.5689C33.7416 16.0461 32.8238 16.0286 32.1154 15.6212L30.5255 16.4861L29.6376 17.4118C29.3994 17.6601 29.3144 18.0114 29.4054 18.3402C29.4059 18.3421 29.4063 18.3434 29.4068 18.3453C29.5624 18.912 29.6568 19.4815 29.6959 20.046C29.7185 20.3822 29.9125 20.6848 30.2161 20.8455L31.3749 21.4587L33.6716 21.8838C34.0765 21.5377 34.6342 21.3703 35.2041 21.4753C36.226 21.6647 36.8838 22.6574 36.622 23.6567C36.3968 24.5124 35.5378 25.0821 34.6396 24.9699C34.027 24.8935 33.5325 24.5321 33.2669 24.0463L30.9553 23.6188L29.5295 23.7891C29.2666 23.821 29.0372 23.9824 28.9299 24.2187C28.5034 25.1514 27.9147 26.0092 27.188 26.7497C27.0074 26.9337 26.9396 27.1971 27.0052 27.4437L27.3595 28.7865L28.2343 30.1291C29.1966 29.9877 30.1979 30.395 30.7534 31.2478C31.5002 32.3935 31.1615 33.9105 29.9992 34.6498C28.8376 35.3888 27.2568 35.0672 26.4955 33.9358C25.9624 33.1437 25.9565 32.1666 26.3886 31.3913L25.4599 29.9663L24.3181 29.0469C24.1489 28.9099 23.9186 28.8737 23.7122 28.9457C23.4832 29.0258 23.2497 29.0972 23.0109 29.1597C21.7133 29.4991 20.4049 29.5429 19.1605 29.3353C18.978 29.3053 18.7915 29.3562 18.6519 29.4746L18.0391 29.9958L17.5834 31.0944C17.8917 31.5621 17.9705 32.1627 17.7408 32.717C17.3506 33.6576 16.2265 34.0932 15.2746 33.6481C14.4548 33.2649 14.0499 32.3234 14.3441 31.4836C14.5315 30.9487 14.949 30.5632 15.4471 30.3885L15.9519 29.1709L15.8582 28.1015C14.9478 27.5435 14.1376 26.8274 13.4751 25.981L11.918 26.1315L10.4606 26.8369C10.4701 27.7937 9.96699 28.704 9.08395 29.1446C7.83618 29.7667 6.30347 29.216 5.66096 27.9139C5.01861 26.6125 5.50853 25.0531 6.7563 24.4311C7.69006 23.9654 8.78274 24.1564 9.54301 24.828L10.9175 24.1624L11.8713 23.1612C11.9337 23.0956 11.9567 23.0035 11.9331 22.9173L11.9327 22.916C11.4919 21.31 11.5369 19.6865 11.9792 18.1944C12.0029 18.1125 11.9851 18.0242 11.9288 17.9591L11.1059 16.9971L9.33289 16.0865C8.84455 16.2969 8.26561 16.2963 7.75647 16.0345C6.83669 15.5616 6.50526 14.4266 7.05353 13.5461C7.53485 12.774 8.56005 12.4808 9.39253 12.8767C9.9314 13.1327 10.279 13.6117 10.3818 14.1415L12.1547 15.0521L13.4167 15.1683C13.5043 15.1766 13.5897 15.1404 13.6453 15.0738C14.2177 14.382 14.899 13.7713 15.6731 13.2704C15.8855 13.1322 16.0175 12.9033 16.0208 12.654L16.0338 11.5331L15.5392 10.2104C14.4669 10.1348 13.4968 9.49938 13.1124 8.5081C12.5839 7.14498 13.3619 5.62476 14.8498 5.11341Z" fill="#EC5863"/>
<path d="M27.1393 18.9384C26.1819 15.4505 22.5093 13.3806 18.9363 14.3152C15.3633 15.2498 13.2429 18.835 14.2003 22.3229C15.1576 25.8109 18.8303 27.8808 22.4033 26.9462C25.9763 26.0116 28.0967 22.4264 27.1393 18.9384Z" fill="#F58A97"/>
<path d="M21.8749 25.0212C18.637 25.8681 15.3175 24.2479 14.0107 21.3409C14.0477 21.6676 14.1104 21.9957 14.2003 22.3229C15.1577 25.8109 18.8302 27.8808 22.4033 26.9462C25.9764 26.0116 28.0967 22.4265 27.1393 18.9384C27.0495 18.6112 26.9358 18.2965 26.8005 17.9955C27.1576 21.1508 25.1127 24.1743 21.8749 25.0212Z" fill="#F07281"/>
<path d="M11.8249 34.3334C11.5523 33.3401 10.5064 32.7506 9.4889 33.0168C8.47141 33.2829 7.86758 34.3039 8.14021 35.2972C8.41285 36.2904 9.45871 36.8799 10.4762 36.6137C11.4937 36.3476 12.0975 35.3266 11.8249 34.3334Z" fill="#EB5569"/>
<path d="M35.6193 28.6364C35.4392 27.9803 34.7484 27.591 34.0764 27.7668C33.4043 27.9425 33.0055 28.6169 33.1855 29.273C33.3656 29.929 34.0564 30.3184 34.7285 30.1426C35.4006 29.9668 35.7994 29.2924 35.6193 28.6364Z" fill="#EB5569"/>
<path d="M32.2071 6.15219C31.9418 5.18585 30.9243 4.61238 29.9344 4.87131C28.9445 5.13024 28.357 6.12352 28.6223 7.08986C28.8875 8.0562 29.905 8.62966 30.895 8.37073C31.8849 8.11181 32.4723 7.11853 32.2071 6.15219Z" fill="#EB5569"/>
<path d="M21.0887 22.5989C20.8415 21.6979 19.8928 21.1633 18.9699 21.4047C18.047 21.6461 17.4993 22.5721 17.7466 23.473C17.9939 24.374 18.9425 24.9086 19.8654 24.6672C20.7883 24.4258 21.336 23.4998 21.0887 22.5989Z" fill="#EB5569"/>
<path d="M25.3861 20.0713C25.2178 19.4581 24.5721 19.0942 23.9439 19.2585C23.3157 19.4228 22.9429 20.0531 23.1113 20.6663C23.2796 21.2796 23.9253 21.6435 24.5534 21.4792C25.1816 21.3149 25.5544 20.6845 25.3861 20.0713Z" fill="#EB5569"/>
<path d="M20.8406 17.5235C20.6992 17.0086 20.157 16.703 19.6295 16.841C19.102 16.9789 18.789 17.5082 18.9303 18.0231C19.0717 18.5381 19.6139 18.8437 20.1414 18.7057C20.6689 18.5677 20.9819 18.0384 20.8406 17.5235Z" fill="#EB5569"/>
</svg>
